<svg width="270" height="270" viewBox="0 0 270 270" fill="none" xmlns="http://www.w3.org/2000/svg">
<g filter="url(#filter0_d_9_43)">
<circle cx="135" cy="131" r="125" fill="black"/>
<path d="M135.5 14L152.587 90.2488L218.585 48.415L176.751 114.413L253 131.5L176.751 148.587L218.585 214.585L152.587 172.751L135.5 249L118.413 172.751L52.415 214.585L94.2488 148.587L18 131.5L94.2488 114.413L52.415 48.415L118.413 90.2488L135.5 14Z" fill="#0038FE"/>
<path d="M101.602 116.24H110.202L115.962 130.56L112.402 144.88L101.602 116.24ZM122.922 115.36L123.922 119.8L113.842 140.44C113.842 140.44 113.748 140.667 113.562 141.12C113.402 141.547 113.228 142.093 113.042 142.76C112.882 143.427 112.788 144.133 112.762 144.88H112.402L111.042 139.36L122.562 115.36H122.922ZM122.922 115.4L132.002 132.16L129.402 144.88L119.242 125.76L122.922 115.4ZM137.922 116.24L130.362 140.44C130.362 140.44 130.295 140.68 130.162 141.16C130.028 141.613 129.908 142.187 129.802 142.88C129.722 143.547 129.722 144.213 129.802 144.88H129.402L127.842 140.92L134.842 116.24H137.922ZM134.082 118.88C134.295 118.08 134.228 117.467 133.882 117.04C133.535 116.613 133.095 116.4 132.562 116.4H132.202V116H140.922V116.4C140.922 116.4 140.868 116.4 140.762 116.4C140.655 116.4 140.602 116.4 140.602 116.4C139.988 116.4 139.322 116.6 138.602 117C137.882 117.373 137.375 118 137.082 118.88H134.082ZM111.282 118.88H102.602C102.255 118 101.735 117.373 101.042 117C100.348 116.6 99.6951 116.4 99.0817 116.4C99.0817 116.4 99.0284 116.4 98.9217 116.4C98.8151 116.4 98.7617 116.4 98.7617 116.4V116H113.122V116.4H112.762C112.255 116.4 111.802 116.613 111.402 117.04C111.028 117.467 110.988 118.08 111.282 118.88ZM159.389 116.12V144H151.189V116.12H159.389ZM168.869 115.96V117.96H141.709V115.96H168.869ZM168.869 117.84V123.48L168.469 123.44V123.16C168.469 121.56 168.015 120.307 167.109 119.4C166.202 118.467 164.935 117.987 163.309 117.96V117.84H168.869ZM168.869 115.24V116.4L163.989 115.96C164.575 115.96 165.189 115.92 165.829 115.84C166.495 115.76 167.109 115.667 167.669 115.56C168.229 115.453 168.629 115.347 168.869 115.24ZM151.309 141.08V144H148.109V143.6C148.109 143.6 148.189 143.6 148.349 143.6C148.535 143.6 148.629 143.6 148.629 143.6C149.322 143.6 149.909 143.36 150.389 142.88C150.895 142.373 151.162 141.773 151.189 141.08H151.309ZM159.269 141.08H159.389C159.415 141.773 159.669 142.373 160.149 142.88C160.655 143.36 161.255 143.6 161.949 143.6C161.949 143.6 162.029 143.6 162.189 143.6C162.375 143.6 162.469 143.6 162.469 143.6V144H159.269V141.08ZM147.269 117.84V117.96C145.642 117.987 144.375 118.467 143.469 119.4C142.562 120.307 142.109 121.56 142.109 123.16V123.44L141.709 123.48V117.84H147.269ZM141.709 115.24C141.975 115.347 142.375 115.453 142.909 115.56C143.469 115.667 144.082 115.76 144.749 115.84C145.415 115.92 146.029 115.96 146.589 115.96L141.709 116.4V115.24Z" fill="white"/>
</g>
<defs>
<filter id="filter0_d_9_43" x="0" y="0" width="270" height="270" filterUnits="userSpaceOnUse" color-interpolation-filters="sRGB">
<feFlood flood-opacity="0" result="BackgroundImageFix"/>
<feColorMatrix in="SourceAlpha" type="matrix" values="0 0 0 0 0 0 0 0 0 0 0 0 0 0 0 0 0 0 127 0" result="hardAlpha"/>
<feOffset dy="4"/>
<feGaussianBlur stdDeviation="5"/>
<feComposite in2="hardAlpha" operator="out"/>
<feColorMatrix type="matrix" values="0 0 0 0 0 0 0 0 0 0 0 0 0 0 0 0 0 0 0.25 0"/>
<feBlend mode="normal" in2="BackgroundImageFix" result="effect1_dropShadow_9_43"/>
<feBlend mode="normal" in="SourceGraphic" in2="effect1_dropShadow_9_43" result="shape"/>
</filter>
</defs>
</svg>
